<?xml version="1.0" encoding="UTF-8" standalone="no"?><!-- Generator: Gravit.io --><svg xmlns="http://www.w3.org/2000/svg" xmlns:xlink="http://www.w3.org/1999/xlink" style="isolation:isolate" viewBox="701 281 600 600" width="600pt" height="600pt"><defs><clipPath id="_clipPath_waGHYp6HT5NWgAaf3zjAb3X1Qy92j0lp"><rect x="701" y="281" width="600" height="600"/></clipPath></defs><g clip-path="url(#_clipPath_waGHYp6HT5NWgAaf3zjAb3X1Qy92j0lp)"><rect x="701" y="281" width="600" height="600" style="fill:rgb(216,238,224)" fill-opacity="0"/><clipPath id="_clipPath_gfu6wmCJWPXgETh4BPuxVv8XMwjAcCm2"><rect x="701" y="281" width="600" height="600" transform="matrix(1,0,0,1,0,0)" fill="rgb(255,255,255)"/></clipPath><g clip-path="url(#_clipPath_gfu6wmCJWPXgETh4BPuxVv8XMwjAcCm2)"><g><circle vector-effect="non-scaling-stroke" cx="1000.9607843137255" cy="581" r="200" fill="rgb(100,134,112)"/><path d=" M 1071.013 810.414 C 1065.576 798.47 1074.173 782.851 1090.198 775.557 C 1106.223 768.264 1123.647 772.04 1129.084 783.984 C 1134.52 795.929 1125.923 811.547 1109.898 818.841 C 1093.873 826.135 1076.449 822.359 1071.013 810.414 Z " fill="rgb(80,108,90)"/><path d=" M 1060.662 735.285 L 1071.148 730.068 C 1076.985 727.164 1084.082 729.545 1086.986 735.381 L 1104.992 771.568 C 1107.896 777.405 1105.515 784.501 1099.678 787.405 L 1089.192 792.622 C 1083.355 795.526 1076.258 793.145 1073.354 787.309 L 1055.348 751.122 C 1052.444 745.285 1054.825 738.189 1060.662 735.285 Z " fill="rgb(80,108,90)"/><path d=" M 823.581 749.292 C 832.239 739.43 850.011 740.853 863.242 752.469 C 876.474 764.085 880.187 781.523 871.529 791.385 C 862.871 801.247 845.1 799.823 831.868 788.207 C 818.637 776.592 814.924 759.154 823.581 749.292 Z " fill="rgb(80,108,90)"/><path d=" M 882.835 717.154 L 891.704 724.802 C 896.641 729.06 897.193 736.525 892.936 741.462 L 866.543 772.073 C 862.286 777.011 854.822 777.563 849.885 773.306 L 841.016 765.658 C 836.079 761.4 835.527 753.935 839.784 748.998 L 866.177 718.387 C 870.434 713.449 877.898 712.897 882.835 717.154 Z " fill="rgb(80,108,90)"/><path d=" M 1127.567 368.763 C 1136.225 358.901 1153.996 360.325 1167.228 371.941 C 1180.459 383.557 1184.173 400.994 1175.515 410.856 C 1166.857 420.718 1149.085 419.295 1135.854 407.679 C 1122.622 396.063 1118.909 378.626 1127.567 368.763 Z " fill="rgb(80,108,90)"/><path d=" M 1139.795 391.304 L 1148.664 398.951 C 1153.601 403.207 1154.153 410.671 1149.896 415.608 L 1123.503 446.214 C 1119.246 451.151 1111.782 451.703 1106.845 447.446 L 1097.976 439.799 C 1093.039 435.543 1092.487 428.079 1096.744 423.142 L 1123.137 392.536 C 1127.394 387.599 1134.858 387.047 1139.795 391.304 Z " fill="rgb(80,108,90)"/><path d=" M 1020.774 313.787 C 1022.28 304.701 1033.394 298.966 1045.577 300.986 C 1057.76 303.006 1066.427 312.023 1064.92 321.108 C 1063.413 330.194 1052.299 335.93 1040.117 333.909 C 1027.934 331.889 1019.267 322.872 1020.774 313.787 Z " fill="rgb(80,108,90)"/><path d=" M 1040.14 314.807 L 1042.138 315.168 C 1048.098 316.246 1052.061 321.961 1050.983 327.923 L 1040.392 386.496 C 1039.314 392.457 1033.6 396.421 1027.64 395.343 L 1025.642 394.982 C 1019.682 393.904 1015.719 388.189 1016.797 382.227 L 1027.388 323.654 C 1028.466 317.693 1034.18 313.729 1040.14 314.807 Z " fill="rgb(80,108,90)"/><path d=" M 924.873 833.834 C 926.37 824.747 937.477 818.999 949.662 821.005 C 961.847 823.012 970.525 832.019 969.028 841.106 C 967.531 850.193 956.424 855.942 944.239 853.935 C 932.054 851.928 923.377 842.921 924.873 833.834 Z " fill="rgb(80,108,90)"/><path d=" M 960.617 758.427 L 962.615 758.788 C 968.577 759.866 972.541 765.581 971.463 771.543 L 960.869 830.116 C 959.791 836.077 954.075 840.041 948.113 838.963 L 946.115 838.602 C 940.153 837.524 936.189 831.809 937.267 825.847 L 947.861 767.274 C 948.939 761.313 954.655 757.349 960.617 758.427 Z " fill="rgb(80,108,90)"/><path d=" M 1213.449 767.096 C 1207.024 760.498 1208.991 748.147 1217.839 739.532 C 1226.687 730.917 1239.086 729.279 1245.511 735.878 C 1251.935 742.476 1249.968 754.827 1241.121 763.442 C 1232.273 772.057 1219.874 773.694 1213.449 767.096 Z " fill="rgb(80,108,90)"/><path d=" M 1152.085 688.311 L 1152.085 688.311 C 1156.319 683.224 1163.942 682.578 1169.096 686.869 L 1227.168 735.209 C 1232.322 739.5 1233.069 747.113 1228.835 752.199 L 1228.835 752.199 C 1224.601 757.286 1216.978 757.932 1211.824 753.641 L 1153.752 705.301 C 1148.598 701.01 1147.851 693.397 1152.085 688.311 Z " fill="rgb(80,108,90)"/><path d=" M 767.53 428.197 C 761.105 421.599 763.072 409.248 771.92 400.633 C 780.767 392.018 793.167 390.381 799.591 396.979 C 806.016 403.577 804.049 415.929 795.201 424.544 C 786.354 433.158 773.955 434.796 767.53 428.197 Z " fill="rgb(80,108,90)"/><path d=" M 780.417 409.153 L 780.417 409.153 C 784.5 403.945 792.1 403.076 797.378 407.215 L 856.84 453.841 C 862.118 457.98 863.087 465.568 859.003 470.777 L 859.003 470.777 C 854.92 475.985 847.32 476.854 842.042 472.715 L 782.58 426.089 C 777.302 421.95 776.333 414.362 780.417 409.153 Z " fill="rgb(80,108,90)"/><path d=" M 1240.789 547.082 C 1253.912 546.911 1264.752 561.065 1264.981 578.67 C 1265.211 596.276 1254.744 610.708 1241.622 610.879 C 1228.5 611.051 1217.659 596.896 1217.43 579.291 C 1217.2 561.685 1227.667 547.253 1240.789 547.082 Z " fill="rgb(80,108,90)"/><path d=" M 1237.161 572.174 L 1237.524 583.879 C 1237.727 590.394 1232.6 595.848 1226.084 596.05 L 1185.683 597.304 C 1179.166 597.506 1173.712 592.381 1173.509 585.866 L 1173.146 574.161 C 1172.943 567.646 1178.07 562.192 1184.586 561.99 L 1224.987 560.736 C 1231.504 560.534 1236.958 565.659 1237.161 572.174 Z " fill="rgb(80,108,90)"/><path d=" M 767.316 542.708 C 780.438 542.537 791.278 556.691 791.508 574.297 C 791.737 591.902 781.27 606.334 768.148 606.505 C 755.026 606.677 744.186 592.522 743.956 574.917 C 743.726 557.312 754.193 542.879 767.316 542.708 Z " fill="rgb(80,108,90)"/><path d=" M 830.381 565.614 L 830.744 577.319 C 830.947 583.834 825.821 589.288 819.306 589.49 L 778.911 590.744 C 772.395 590.946 766.941 585.821 766.739 579.306 L 766.376 567.601 C 766.173 561.086 771.299 555.632 777.814 555.43 L 818.209 554.176 C 824.725 553.974 830.179 559.099 830.381 565.614 Z " fill="rgb(80,108,90)"/><path d=" M 876.277 378.571 C 870.841 366.626 879.438 351.007 895.463 343.714 C 911.488 336.42 928.912 340.196 934.348 352.141 C 939.785 364.085 931.188 379.704 915.163 386.997 C 899.138 394.291 881.714 390.515 876.277 378.571 Z " fill="rgb(80,108,90)"/><path d=" M 901.091 368.355 L 911.575 363.138 C 917.411 360.234 924.506 362.615 927.41 368.451 L 945.412 404.638 C 948.316 410.475 945.935 417.571 940.099 420.475 L 929.615 425.692 C 923.779 428.596 916.684 426.215 913.78 420.379 L 895.778 384.192 C 892.874 378.355 895.255 371.259 901.091 368.355 Z " fill="rgb(80,108,90)"/><g filter="url(#dhviZqSENm8rhkTKIqlp3QCMjiqZ0hDM)"><ellipse vector-effect="non-scaling-stroke" cx="984.0324200111479" cy="567.21705728611" rx="148.41943976194335" ry="142.9337259015249" fill="rgb(114,151,127)"/></g><defs><filter id="dhviZqSENm8rhkTKIqlp3QCMjiqZ0hDM" x="-200%" y="-200%" width="400%" height="400%" filterUnits="objectBoundingBox" color-interpolation-filters="sRGB"><feGaussianBlur xmlns="http://www.w3.org/2000/svg" stdDeviation="8.758962488191617"/></filter></defs><circle vector-effect="non-scaling-stroke" cx="973.4613109111625" cy="562.6740980218813" r="41.01960784313724" fill="rgb(80,108,90)"/><circle vector-effect="non-scaling-stroke" cx="1001.4800659197547" cy="676.842023560561" r="30" fill="rgb(80,108,90)"/><circle vector-effect="non-scaling-stroke" cx="1068.247997203007" cy="486.0438011130191" r="22.5" fill="rgb(80,108,90)"/><defs><filter id="Dg3hBOt34GsGnwiHll2vBaYU1fWTtglQ" x="-200%" y="-200%" width="400%" height="400%" filterUnits="objectBoundingBox" color-interpolation-filters="sRGB"><feGaussianBlur xmlns="http://www.w3.org/2000/svg" stdDeviation="4.508289515980979"/></filter></defs><g filter="url(#Dg3hBOt34GsGnwiHll2vBaYU1fWTtglQ)"><circle vector-effect="non-scaling-stroke" cx="972.9716519372531" cy="562.7973280813522" r="22.500000000000114" fill="rgb(70,96,79)"/></g><defs><filter id="WqZZz1wH5Ha6qNPbOrbBLnargX8SamAM" x="-200%" y="-200%" width="400%" height="400%" filterUnits="objectBoundingBox" color-interpolation-filters="sRGB"><feGaussianBlur xmlns="http://www.w3.org/2000/svg" stdDeviation="4.508289515980979"/></filter></defs><g filter="url(#WqZZz1wH5Ha6qNPbOrbBLnargX8SamAM)"><circle vector-effect="non-scaling-stroke" cx="1001.4793759348297" cy="677.100835930781" r="22.5" fill="rgb(70,96,79)"/></g><circle vector-effect="non-scaling-stroke" cx="990.3691764937009" cy="456.43930676189814" r="15" fill="rgb(80,108,90)"/><defs><filter id="wkuH6QaosnSxsAy05yZqXKI4JCooUSub" x="-200%" y="-200%" width="400%" height="400%" filterUnits="objectBoundingBox" color-interpolation-filters="sRGB"><feGaussianBlur xmlns="http://www.w3.org/2000/svg" stdDeviation="4.508289515980979"/></filter></defs><g filter="url(#wkuH6QaosnSxsAy05yZqXKI4JCooUSub)"><circle vector-effect="non-scaling-stroke" cx="1067.0000000000002" cy="484.9999999999998" r="12.5" fill="rgb(70,96,79)"/></g><circle vector-effect="non-scaling-stroke" cx="878.6086430053407" cy="617.8109085137161" r="17.5" fill="rgb(80,108,90)"/><circle vector-effect="non-scaling-stroke" cx="894.6017424452084" cy="514.2139766110441" r="22.5" fill="rgb(80,108,90)"/><defs><filter id="laKWbXUXDivJmWxEPzyOnF0hdWS25Jss" x="-200%" y="-200%" width="400%" height="400%" filterUnits="objectBoundingBox" color-interpolation-filters="sRGB"><feGaussianBlur xmlns="http://www.w3.org/2000/svg" stdDeviation="4.508289515980979"/></filter></defs><g filter="url(#laKWbXUXDivJmWxEPzyOnF0hdWS25Jss)"><circle vector-effect="non-scaling-stroke" cx="878.6564336031993" cy="617.2640178717819" r="12.5" fill="rgb(70,96,79)"/></g><defs><filter id="kQ28JmJXAaZeGiur1Rp4b4HHaHL7AzpN" x="-200%" y="-200%" width="400%" height="400%" filterUnits="objectBoundingBox" color-interpolation-filters="sRGB"><feGaussianBlur xmlns="http://www.w3.org/2000/svg" stdDeviation="4.508289515980979"/></filter></defs><g filter="url(#kQ28JmJXAaZeGiur1Rp4b4HHaHL7AzpN)"><circle vector-effect="non-scaling-stroke" cx="893.3531959334798" cy="513.3369128219409" r="12.5" fill="rgb(70,96,79)"/></g><defs><filter id="lKKCXZ5OtuxvKHykL4eR1WJMHjtcMToF" x="-200%" y="-200%" width="400%" height="400%" filterUnits="objectBoundingBox" color-interpolation-filters="sRGB"><feGaussianBlur xmlns="http://www.w3.org/2000/svg" stdDeviation="4.508289515980979"/></filter></defs><g filter="url(#lKKCXZ5OtuxvKHykL4eR1WJMHjtcMToF)"><circle vector-effect="non-scaling-stroke" cx="990.2545135714722" cy="455.3950745059602" r="5" fill="rgb(70,96,79)"/></g><circle vector-effect="non-scaling-stroke" cx="1107.616263181983" cy="646.0457056606308" r="15" fill="rgb(80,108,90)"/><defs><filter id="vz3N8qyev4woozrI5CjPUh4nkb3lOeTA" x="-200%" y="-200%" width="400%" height="400%" filterUnits="objectBoundingBox" color-interpolation-filters="sRGB"><feGaussianBlur xmlns="http://www.w3.org/2000/svg" stdDeviation="4.508289515980979"/></filter></defs><g filter="url(#vz3N8qyev4woozrI5CjPUh4nkb3lOeTA)"><circle vector-effect="non-scaling-stroke" cx="990.50492403297" cy="455.84995844506363" r="5" fill="rgb(70,96,79)"/></g><path d=" M 883.182 371.144 C 880.038 365.159 886.36 355.637 897.292 349.894 C 908.224 344.15 919.653 344.346 922.797 350.332 C 925.942 356.317 919.619 365.839 908.687 371.582 C 897.755 377.326 886.327 377.13 883.182 371.144 Z " fill="rgb(66,89,74)"/><path d=" M 1139.561 370.234 C 1144.395 365.623 1155.239 369.134 1163.763 378.069 C 1172.286 387.005 1175.282 398.003 1170.448 402.614 C 1165.614 407.225 1154.769 403.714 1146.246 394.779 C 1137.722 385.843 1134.727 374.845 1139.561 370.234 Z " fill="rgb(66,89,74)"/><path d=" M 1248.876 554.98 C 1255.079 555.41 1259.421 565.761 1258.567 578.08 C 1257.714 590.4 1251.985 600.052 1245.783 599.623 C 1239.58 599.193 1235.238 588.842 1236.092 576.523 C 1236.945 564.203 1242.674 554.55 1248.876 554.98 Z " fill="rgb(66,89,74)"/><path d=" M 1120.779 792.359 C 1124.115 798.753 1117.935 808.582 1106.986 814.294 C 1096.038 820.006 1084.44 819.452 1081.104 813.058 C 1077.768 806.664 1083.949 796.835 1094.897 791.123 C 1105.846 785.411 1117.443 785.965 1120.779 792.359 Z " fill="rgb(66,89,74)"/><path d=" M 864.257 785.246 C 860.41 791.696 848.676 791.798 838.07 785.473 C 827.464 779.147 821.976 768.775 825.823 762.325 C 829.67 755.874 841.404 755.772 852.01 762.098 C 862.616 768.423 868.104 778.795 864.257 785.246 Z " fill="rgb(66,89,74)"/><path d=" M 763.95 597.837 C 756.907 598.46 750.304 588.98 749.216 576.679 C 748.127 564.378 752.962 553.885 760.005 553.262 C 767.048 552.638 773.651 562.119 774.739 574.42 C 775.828 586.721 770.993 597.214 763.95 597.837 Z " fill="rgb(66,89,74)"/><path d=" M 931.487 838.198 C 932.396 833.343 940.472 830.465 949.51 831.774 C 958.547 833.083 965.147 838.087 964.238 842.941 C 963.328 847.796 955.253 850.675 946.215 849.366 C 937.177 848.057 930.577 843.053 931.487 838.198 Z " fill="rgb(66,89,74)"/><path d=" M 1219.349 766.944 C 1216.567 763.807 1219.647 756.116 1226.223 749.779 C 1232.799 743.443 1240.397 740.845 1243.18 743.983 C 1245.962 747.12 1242.882 754.811 1236.306 761.148 C 1229.73 767.484 1222.132 770.082 1219.349 766.944 Z " fill="rgb(66,89,74)"/><path d=" M 1028.081 308.277 C 1029.722 303.84 1038.109 302.521 1046.797 305.333 C 1055.486 308.146 1061.207 314.031 1059.565 318.468 C 1057.924 322.905 1049.538 324.224 1040.849 321.411 C 1032.161 318.599 1026.44 312.714 1028.081 308.277 Z " fill="rgb(66,89,74)"/><path d=" M 768.459 420.693 C 765.599 417.257 768.775 409.493 775.548 403.366 C 782.32 397.24 790.14 395.057 793 398.493 C 795.86 401.93 792.683 409.694 785.911 415.82 C 779.139 421.946 771.318 424.13 768.459 420.693 Z " fill="rgb(66,89,74)"/><defs><filter id="Jv3D4UYnonIpw5zIDfJN6AvRtiK77QPW" x="-200%" y="-200%" width="400%" height="400%" filterUnits="objectBoundingBox" color-interpolation-filters="sRGB"><feGaussianBlur xmlns="http://www.w3.org/2000/svg" stdDeviation="4.508289515980979"/></filter></defs><g filter="url(#Jv3D4UYnonIpw5zIDfJN6AvRtiK77QPW)"><circle vector-effect="non-scaling-stroke" cx="1107.6302205264783" cy="646.9627961219193" r="5" fill="rgb(70,96,79)"/></g></g></g></g></svg>